<svg width="12" height="16" viewBox="0 0 12 16" fill="none" xmlns="http://www.w3.org/2000/svg">
<path d="M11.5 5.5C11.5 5.081 11.455 4.673 11.367 4.289C11.365 4.279 11.362 4.269 11.359 4.259L10.487 0.39C10.437 0.162 10.233 0 10 0H2C1.766 0 1.563 0.162 1.512 0.39L0.641 4.257C0.638 4.267 0.635 4.278 0.633 4.289C0.544 4.673 0.5 5.081 0.5 5.5C0.5 8.364 2.701 10.721 5.5 10.975V15H3.5C3.224 15 3 15.224 3 15.5C3 15.776 3.224 16 3.5 16H8.5C8.776 16 9 15.776 9 15.5C9 15.224 8.776 15 8.5 15H6.5V10.975C9.299 10.721 11.5 8.364 11.5 5.5ZM1.553 5C1.57 4.846 1.569 4.685 1.601 4.54C1.604 4.529 1.607 4.518 1.61 4.506L2.4 1H9.601L10.391 4.506C10.393 4.516 10.396 4.527 10.399 4.537C10.431 4.684 10.43 4.846 10.447 5H1.553Z" fill="#848484"/>
</svg>
